Coordinates
version=1
nRows=16
nColumns=63
inDegrees=yes

Units are S.I. units (second, meters, Newtons, ...)
If the header above contains a line with 'inDegrees', this indicates whether rotational values are in degrees (yes) or radians (no).

endheader
time	pelvis_tilt	pelvis_list	pelvis_rotation	pelvis_tx	pelvis_ty	pelvis_tz	hip_flexion_r	hip_adduction_r	hip_rotation_r	knee_angle_r	knee_angle_r_beta	ankle_angle_r	subtalar_angle_r	mtp_angle_r	hip_flexion_l	hip_adduction_l	hip_rotation_l	knee_angle_l	knee_angle_l_beta	ankle_angle_l	subtalar_angle_l	mtp_angle_l	L5_S1_Flex_Ext	L5_S1_Lat_Bending	L5_S1_axial_rotation	L4_L5_Flex_Ext	L4_L5_Lat_Bending	L4_L5_axial_rotation	L3_L4_Flex_Ext	L3_L4_Lat_Bending	L3_L4_axial_rotation	L2_L3_Flex_Ext	L2_L3_Lat_Bending	L2_L3_axial_rotation	L1_L2_Flex_Ext	L1_L2_Lat_Bending	L1_L2_axial_rotation	L1_T12_Flex_Ext	L1_T12_Lat_Bending	L1_T12_axial_rotation	Abs_r3	Abs_r2	Abs_r1	Abs_t1	Abs_t2	neck_flexion	neck_bending	neck_rotation	arm_flex_r	arm_add_r	arm_rot_r	elbow_flex_r	pro_sup_r	wrist_flex_r	wrist_dev_r	arm_flex_l	arm_add_l	arm_rot_l	elbow_flex_l	pro_sup_l	wrist_flex_l	wrist_dev_l
0.000000	0.411814	-3.994047	91.516584	0.217364	0.788492	0.714814	13.699017	-0.854831	-2.595229	17.430444	0.304219	29.751038	2.880281	0.000000	9.306043	-0.506049	5.165016	5.818222	0.101547	25.686028	-9.392941	0.000000	0.339924	0.168386	0.349879	0.631274	0.223953	0.371746	0.558462	0.409414	0.371746	0.388500	0.409414	0.306144	0.315654	0.343373	0.284277	0.194233	0.260830	0.262409	2.428046	1.904816	1.945922	0.000000	0.000000	28.351116	-0.381802	3.272392	15.825336	-3.798330	75.092547	29.401505	82.107591	3.556350	-5.928181	10.899582	-9.013940	51.937059	44.547116	66.268683	7.679419	-3.385940
0.029412	-0.548181	-3.869946	90.484170	0.219262	0.789520	0.716473	13.937439	-1.484884	-1.042107	17.669332	0.308388	29.106133	1.626561	0.000000	9.339276	0.326681	5.021629	6.012243	0.104933	25.300592	-10.740892	0.000000	0.315042	0.028277	0.423122	0.585064	0.037609	0.449567	0.517582	0.068754	0.449567	0.360061	0.068754	0.370232	0.292548	0.057663	0.343787	0.180015	0.043802	0.317341	2.250311	0.319879	2.353277	0.000000	0.000000	28.193425	0.814145	3.428799	16.632953	-4.255530	73.929398	32.228493	84.224950	4.123070	-3.330237	11.275979	-9.591729	51.866688	43.926659	67.710650	7.602443	-3.491709
0.058824	-1.290468	-3.743854	89.576587	0.220709	0.790218	0.717533	14.092787	-1.942334	0.337140	17.854646	0.311622	28.645010	0.558297	0.000000	9.287742	0.971935	4.745614	6.108685	0.106617	25.062449	-11.730910	0.000000	0.294059	-0.075898	0.503096	0.546097	-0.100944	0.534539	0.483110	-0.184538	0.534539	0.336080	-0.184538	0.440209	0.273063	-0.154771	0.408765	0.168025	-0.117566	0.377322	2.100436	-0.858570	2.798069	0.000000	0.000000	28.078663	1.723805	3.682775	17.187626	-4.488381	73.036331	34.038845	85.465396	4.457028	-1.366366	11.573294	-9.930303	51.817271	43.337405	68.706422	7.407424	-3.531966
0.088235	-1.836620	-3.615902	88.788817	0.221755	0.790628	0.718055	14.171416	-2.245729	1.549618	17.989934	0.313984	28.346254	-0.341409	0.000000	9.160695	1.448074	4.356457	6.118215	0.106783	24.954752	-12.395718	0.000000	0.276615	-0.148108	0.587272	0.513702	-0.196984	0.623976	0.454451	-0.360110	0.623976	0.316143	-0.360110	0.513863	0.256865	-0.302022	0.477158	0.158058	-0.229419	0.440454	1.975833	-1.675427	3.266230	0.000000	0.000000	28.001388	2.379701	4.013750	17.520605	-4.531634	72.381632	34.971311	85.913342	4.587952	0.043197	11.800726	-10.059193	51.793433	42.777511	69.323004	7.101705	-3.519444
0.117647	-2.208205	-3.486223	88.115843	0.222447	0.790794	0.718100	14.179683	-2.413615	2.602436	18.078744	0.315534	28.188448	-1.089454	0.000000	8.967388	1.773461	3.873643	6.051505	0.105619	24.960653	-12.768036	0.000000	0.262346	-0.192322	0.673120	0.487204	-0.255788	0.715190	0.431009	-0.467611	0.715190	0.299836	-0.467611	0.588980	0.243615	-0.392183	0.546910	0.149905	-0.297907	0.504840	1.873914	-2.175584	3.743691	0.000000	0.000000	27.956159	2.814352	4.401151	17.663139	-4.420038	71.933582	35.164638	85.653202	4.545570	0.978214	11.967472	-10.007929	51.799802	42.245139	69.627402	6.692624	-3.466875
0.147059	-2.426793	-3.354946	87.552649	0.222834	0.790759	0.717730	14.123944	-2.464539	3.502701	18.124625	0.316334	28.150177	-1.702737	0.000000	8.717076	1.966455	3.316656	5.919222	0.103310	25.063307	-12.880586	0.000000	0.250891	-0.212508	0.758111	0.465930	-0.282636	0.805493	0.412189	-0.516693	0.805493	0.286744	-0.516693	0.663347	0.232978	-0.433347	0.615965	0.143359	-0.329175	0.568583	1.792092	-2.403936	4.216384	0.000000	0.000000	27.937533	3.060279	4.824407	17.646476	-4.188344	71.660465	34.757577	84.769388	4.359608	1.518450	12.082729	-9.806039	51.841004	41.738445	69.686622	6.187523	-3.386991
0.176471	-2.513953	-3.222205	87.094216	0.222964	0.790566	0.717008	14.010556	-2.417047	4.257521	18.131123	0.316448	28.210026	-2.198155	0.000000	8.419013	2.045419	2.704983	5.732035	0.100043	25.245867	-12.766091	0.000000	0.241887	-0.212636	0.839715	0.449209	-0.282805	0.892197	0.397397	-0.517002	0.892197	0.276453	-0.517002	0.734750	0.224617	-0.433607	0.682268	0.138214	-0.329373	0.629786	1.727777	-2.405377	4.670240	0.000000	0.000000	27.940070	3.150003	5.262944	17.501867	-3.871301	71.530564	33.888878	83.346316	4.059795	1.743670	12.155695	-9.483056	51.921668	41.255590	69.567671	5.593741	-3.292525
0.205882	-2.491257	-3.088129	86.735527	0.222885	0.790258	0.715995	13.845874	-2.289686	4.874004	18.101789	0.315936	28.346579	-2.592607	0.000000	8.082453	2.028714	2.058106	5.500615	0.096004	25.491487	-12.457273	0.000000	0.234972	-0.196673	0.915402	0.436367	-0.261575	0.972615	0.386036	-0.478190	0.972615	0.268550	-0.478190	0.800977	0.218195	-0.401055	0.743764	0.134263	-0.304646	0.686551	1.678382	-2.224801	5.091191	0.000000	0.000000	27.958328	3.116044	5.696192	17.260560	-3.503660	71.512163	32.697288	81.468398	3.675858	1.733638	12.195568	-9.068507	52.046418	40.794733	69.337553	4.918619	-3.196207
0.235294	-2.380272	-2.952852	86.471566	0.222645	0.789879	0.714753	13.636255	-2.101003	5.359258	18.040169	0.314860	28.538420	-2.902990	0.000000	7.716649	1.934702	1.395512	5.235629	0.091379	25.783320	-11.986853	0.000000	0.229783	-0.168588	0.982644	0.426730	-0.224222	1.044059	0.377511	-0.409905	1.044059	0.262619	-0.409905	0.859813	0.213377	-0.343785	0.798398	0.131298	-0.261143	0.736983	1.641317	-1.907103	5.465168	0.000000	0.000000	27.986865	2.990923	6.103577	16.953805	-3.120171	71.573546	31.321558	79.220047	3.237526	1.568117	12.211545	-8.591923	52.219883	40.354032	69.063275	4.169497	-3.110771
0.264706	-2.202570	-2.816504	86.297314	0.222293	0.789472	0.713344	13.388056	-1.869546	5.720389	17.949812	0.313283	28.764135	-3.146202	0.000000	7.330855	1.781743	0.736686	4.947748	0.086354	26.104519	-11.387553	0.000000	0.225958	-0.132351	1.038910	0.419627	-0.176026	1.103841	0.371227	-0.321797	1.103841	0.258247	-0.321797	0.909046	0.209825	-0.269889	0.844114	0.129112	-0.205011	0.779182	1.613996	-1.497176	5.778103	0.000000	0.000000	28.020239	2.807161	6.464529	16.612851	-2.755585	71.682995	29.900438	76.685677	2.774526	1.326872	12.212823	-8.082833	52.446690	39.931646	68.811843	3.353715	-3.048949
0.294118	-1.979720	-2.679217	86.207754	0.221877	0.789081	0.711829	13.107631	-1.613859	5.964505	17.834266	0.311267	29.002307	-3.339141	0.000000	6.934325	1.588200	0.101111	4.647639	0.081117	26.438238	-10.692095	0.000000	0.223135	-0.091929	1.081671	0.414384	-0.122265	1.149275	0.366588	-0.223515	1.149275	0.255021	-0.223515	0.946462	0.207203	-0.187461	0.878857	0.127499	-0.142397	0.811253	1.593829	-1.039915	6.015928	0.000000	0.000000	28.053010	2.597279	6.758475	16.268947	-2.444650	71.808795	28.572675	73.949702	2.316585	1.089667	12.208600	-7.570768	52.731464	39.525735	68.650262	2.478614	-3.023472
0.323529	-1.764920	-2.575149	86.207154	0.221483	0.788524	0.710244	12.856713	-1.387323	6.080481	17.739197	0.309607	29.271205	-3.519092	0.000000	6.582329	1.404934	-0.329704	4.364426	0.076174	26.790733	-10.134725	0.000000	0.225355	-0.054110	1.105791	0.418508	-0.071966	1.174903	0.370236	-0.131562	1.174903	0.257559	-0.131562	0.967567	0.209265	-0.110340	0.898455	0.128768	-0.083816	0.829343	1.609691	-0.612098	6.150078	0.000000	0.000000	28.165851	2.444674	7.113608	15.737156	-1.686983	72.719881	25.866496	69.687214	0.322808	0.580068	12.272038	-6.899967	53.547527	38.657493	68.649618	1.727453	-2.986539
0.352941	-1.606518	-2.445428	86.290214	0.221332	0.788258	0.708812	12.563360	-1.218038	6.133803	17.615770	0.307453	29.469392	-3.757242	0.000000	6.224224	1.261311	-0.773839	4.101311	0.071581	27.111700	-9.440838	0.000000	0.223997	-0.034540	1.094675	0.415985	-0.045938	1.163092	0.368005	-0.083981	1.163092	0.256006	-0.083981	0.957840	0.208004	-0.070434	0.889423	0.127992	-0.053503	0.821006	1.599988	-0.390725	6.088253	0.000000	0.000000	28.233503	2.462494	7.227179	15.027365	-1.318721	73.940755	23.870820	66.139931	-1.728043	0.821788	12.397470	-6.368206	54.627331	37.670777	68.995538	0.837121	-3.108197
0.382353	-1.486671	-2.291352	86.480342	0.221314	0.788312	0.707571	12.222861	-1.091566	6.124965	17.455283	0.304652	29.560247	-4.107724	0.000000	5.872664	1.150779	-1.132870	3.872219	0.067583	27.362779	-8.712765	0.000000	0.219408	-0.030002	1.056485	0.407463	-0.039903	1.122515	0.360466	-0.072947	1.122515	0.250762	-0.072947	0.924424	0.203743	-0.061180	0.858394	0.125370	-0.046473	0.792363	1.567212	-0.339388	5.875850	0.000000	0.000000	28.214421	2.583403	7.033918	14.047811	-1.639790	75.045098	23.935701	63.550626	-1.649622	2.401706	12.648824	-6.035273	55.978407	36.634555	69.927486	-0.355141	-3.485831
0.411765	-1.418343	-2.117370	86.734381	0.221443	0.788718	0.706515	11.843155	-1.024761	6.014950	17.259609	0.301237	29.536628	-4.453894	0.000000	5.526797	1.078972	-1.477714	3.669932	0.064052	27.524953	-7.901253	0.000000	0.212988	-0.040865	1.000547	0.395540	-0.054351	1.063081	0.349918	-0.099360	1.063081	0.243424	-0.099360	0.875478	0.197780	-0.083333	0.812944	0.121701	-0.063300	0.750410	1.521351	-0.462276	5.564740	0.000000	0.000000	28.101566	2.805176	6.548052	13.000142	-2.564712	74.878739	26.740422	61.985674	1.482722	4.909070	12.974537	-6.003900	57.336735	35.736432	71.409699	-1.837434	-4.169399
0.441176	-1.400973	-1.925926	87.052154	0.221698	0.789515	0.705661	11.426084	-1.026265	5.747554	17.027865	0.297192	29.383568	-4.725590	0.000000	5.190737	1.048286	-1.744938	3.493782	0.060978	27.550637	-7.087542	0.000000	0.205446	-0.066487	0.916103	0.381533	-0.088428	0.973360	0.337527	-0.161658	0.973360	0.234804	-0.161658	0.801590	0.190777	-0.135581	0.744334	0.117392	-0.102989	0.687078	1.467479	-0.752119	5.095092	0.000000	0.000000	27.881273	3.100080	5.779253	12.413736	-4.002938	73.266863	31.902439	61.657346	5.384146	7.180192	13.231218	-6.339954	58.265471	35.259113	73.337761	-3.393904	-5.081804
